<svg xmlns="http://www.w3.org/2000/svg" xml:space="preserve" viewBox="0 0 574 435"><path d="M536 436H1V1h574v435zM153.185 207.478c4.406.345 3.014-3.405 3.132-5.21 1.394-21.199-15.914-31.982-33.34-31.782-15.78.182-28.158 7.798-32.988 25.019-.011.463-.022.926-.05 2.317.544 7.263 3.019 14.707-2.553 21.371-.484.58 1.35 3.112 2.129 4.728.595 1.236 1.385 2.407 1.789 3.7.362 1.161.097 2.525.492 3.666.981 2.84 2.61 5.517 3.196 8.418.96 4.751 2.989 6.364 7.564 5.068 7.357-2.084 7.355-2.084 10.473 4.693.277.601.612 1.176.89 1.777 1.322 2.86 1.066 5.308-1.387 7.615-2.554 2.402-4.804 5.127-7.186 7.71l.488 1.196c2.724-1.25 5.418-2.57 8.182-3.723 1.747-.729 3.591-1.691 5.403-1.717 10.979-.16 21.96-.08 33.922-.08-.857-2.77-1.204-5.182-2.314-7.17-1.597-2.857-3.696-5.444-5.673-8.078-6.746-8.987-6.68-14.628.152-23.49 3.275-4.249 6.353-8.649 9.648-13.154-1.542-.96-2.46-1.532-3.001-2.578.117-.164.234-.33 1.032-.296m315.767 7.315c.588-2.578 1.236-5.145 1.744-7.738.434-2.214 1.498-4.893-2.226-5.277-2.875-.297-5.865-.63-5.626 3.944.11 2.092-.395 4.248-.835 6.33-.72 3.408-1.617 6.78-2.439 10.167l-1.06-.333-2.775-19.25H445.36l-3.2 20.243-1.253-.076c-.632-4.664-1.421-9.313-1.857-13.995-.652-6.987-3.455-8.678-9.488-5.686 1.64 8.755 3.41 17.423 4.833 26.148.66 4.045 2.145 6.478 6.669 6.045 1.916-.183 3.864-.03 5.784-.03l3.014-18.09 1.26.103c.652 4.548 1.374 9.087 1.936 13.646.643 5.22 4.544 4.16 7.929 4.371 3.103.194 4.777-.397 5.1-4.158.448-5.21 1.855-10.337 2.864-16.364m-245.169-1.059-1.52 21.26h8.093V214.08c1.92 3.863 2.958 7.738 3.722 11.667.578 2.97 1.863 5.064 5.113 5.144 3.427.084 5.197-1.882 5.87-5.115.615-2.947 1.36-5.867 2.046-8.8l.847.152 1.3 17.792h7.95c-.886-11.207-1.74-22.02-2.602-32.904-1.886-.155-2.86-.178-3.816-.322-4.85-.732-7.775.556-8.219 6.183-.317 4.03-1.812 7.968-3.04 13.005-1.413-6.121-2.43-11.212-3.852-16.186-.342-1.194-1.917-2.643-3.122-2.855-2.507-.442-5.145-.134-7.87-.134-.34 4.182-.62 7.632-.9 12.028m93.309-2.934c-2.043-9.296-9.407-10.128-23.693-8.546v32.648h8.277v-11.21l1.162-.816c1.304 1.283 2.923 2.377 3.836 3.895 1.262 2.1 1.417 5.241 3.115 6.596 1.662 1.326 4.665.97 7.079 1.353-.114-1.635.113-3.39-.412-4.88-1.084-3.075-2.57-6.008-3.308-7.682 1.544-4.143 2.735-7.34 3.944-11.358m-47.931-6.21-9.662 30.146c5.168 1.303 8.37.953 9.307-4.248.783-4.352 4.508-2.275 6.935-2.406 1.317-.07 3.44 1.067 3.954 2.216 2.402 5.372 3.305 5.922 9.537 4.118 0-.6.161-1.29-.025-1.869-2.993-9.328-5.964-18.664-9.091-27.947-1.295-3.843-7.657-4.224-10.955-.01m154.722 11.124-10.285-1.08.352-5.544h6.803c6.64 0 6.94-.392 5.441-7.152h-20.912c0 10.156-.163 20.07.213 29.962.045 1.186 2.913 3.005 4.644 3.234 3.756.495 7.625.058 11.443.176 4.483.138 5.984-2.28 6.143-6.754h-13.829v-6.61h10.112c0-2.054 0-3.68-.125-6.232M211.62 201.788c-2.324-.03-4.658-.199-6.972-.057-4.747.29-8.548 3.554-9.571 7.816-1.206 5.022.975 8.265 5.27 10.448 2.324 1.181 4.816 2.082 6.993 3.482 1.13.726 1.74 2.262 2.583 3.432-1.516.683-3.126 2.084-4.53 1.902-2.992-.39-5.877-1.601-8.76-2.462-3.935 5.464-3.587 7.012 2.661 8.356 3.589.772 7.73 1.376 11.051.296 3.111-1.011 6.373-3.859 7.928-6.773 1.95-3.654.753-7.852-3.147-10.282-3-1.869-6.344-3.179-9.399-4.97-.917-.539-1.704-1.802-1.888-2.85-.078-.44 1.523-1.608 2.432-1.694 1.592-.152 3.472-.167 4.822.54 5.087 2.666 6.46-.15 7.197-4.678a774 774 0 0 0-6.67-2.506m167.721 26.434 7.831-26.044-8.145-.55-6.122 25.16c-1.872-6.868-3.56-12.339-4.833-17.903-1.746-7.633-2.365-8.139-10.22-6.134 2.63 9.44 5.342 18.856 7.844 28.327.839 3.174 2.701 4.328 5.77 4.219 2.12-.076 4.246-.015 6.523-.015.446-2.397.806-4.33 1.352-7.06m-36.158-24.77c-.523-.547-1.039-1.561-1.568-1.569-7.56-.103-15.12-.07-22.73-.07l-.368 7.059 8.513.432v25.656h7.357v-24.982c3.15-2.294 9.27 1.496 8.796-6.527m-167.313-9.83c0 17.99-.055 35.98.089 53.968.013 1.7 1.273 3.39 1.954 5.084.62-1.777 1.706-3.536 1.778-5.335.232-5.82.096-11.656.097-17.486 0-13.826-.006-27.65 0-41.476.001-2.384.317-5.026-3.918-3.58zm178.75 37.494v-29.053h-8.33v33.241c2.918-1.343 7.545 3.388 8.33-4.188m44.146-6.653-.017-15.963c-.012-7.56-.675-8.042-8.323-6.074v32.62h8.333c0-3.353 0-6.476.007-10.583"/><path fill="#F7F7F7" d="M90.092 194.813c4.727-16.53 17.105-24.145 32.884-24.327 17.427-.2 34.735 10.583 33.341 31.782-.118 1.805 1.274 5.555-3.81 4.913-.913-2.538-.996-4.808-1.438-7.007-.299-1.482-1.105-2.862-1.964-4.977 0 4.265-.223 7.293.122 10.254.12 1.017 1.659 1.87 2.549 2.797l3.378 2.104c-3.295 4.505-6.373 8.905-9.648 13.154-6.832 8.862-6.898 14.503-.152 23.49 1.977 2.634 4.076 5.22 5.673 8.079 1.11 1.987 1.457 4.4 2.314 7.17-11.961 0-22.943-.08-33.922.079-1.812.026-3.656.988-5.403 1.717-2.764 1.153-5.458 2.473-8.182 3.723l-.488-1.196c2.382-2.583 4.632-5.308 7.186-7.71 2.453-2.307 2.709-4.755 1.387-7.615-.278-.601-.613-1.176-.89-1.777-3.118-6.777-3.116-6.777-10.473-4.693-4.575 1.296-6.603-.317-7.564-5.068-.586-2.9-2.215-5.578-3.196-8.418-.395-1.141-.13-2.505-.492-3.665-.404-1.294-1.194-2.465-1.79-3.701-.778-1.616-2.612-4.149-2.128-4.728 5.572-6.664 3.097-14.108 2.945-22.03 7.402-.972 13.273-5.035 15.004-11.477-3.674 2.43-6.93 5.398-10.472 7.973-1.224.89-3.16.798-4.771 1.154m45.942-4.93 3.564 3.054 1.004-1.182c-1.286-1.118-2.573-2.236-4.39-3.928-6.147-3.275-12.04-1.683-18.1.304 6.06.386 11.85.755 17.922 1.751m7.88 6.497-1.774-1.646.619 13.85c3.205-4.165 1.743-7.891 1.155-12.204m-24.037 35.005.201 2.37 1.438.43 2.86-8.428-1.84-.775c-.895 1.868-1.79 3.737-2.66 6.403m15.066 15.585c.016 1.653.004 3.307.058 4.96.046 1.436.167 2.87.256 4.305l.943-.16v-12.285l-.95.006a41 41 0 0 0-.307 3.174"/><path fill="#F5F5F5" d="M468.946 215.225c-1.003 5.595-2.41 10.722-2.857 15.932-.324 3.76-1.998 4.352-5.101 4.158-3.385-.211-7.286.848-7.929-4.371-.562-4.56-1.284-9.098-1.936-13.646l-1.26-.102-3.014 18.089c-1.92 0-3.868-.153-5.784.03-4.524.433-6.01-2-6.669-6.045-1.422-8.725-3.193-17.393-4.833-26.148 6.033-2.992 8.836-1.301 9.488 5.686.436 4.682 1.225 9.331 1.857 13.995l1.254.076 3.2-20.243h10.373l2.775 19.25 1.06.333c.822-3.387 1.718-6.759 2.44-10.167.44-2.082.944-4.238.834-6.33-.239-4.574 2.751-4.24 5.626-3.944 3.724.384 2.66 3.063 2.226 5.277-.508 2.593-1.156 5.16-1.75 8.17m-245.163-1.964c.28-3.923.56-7.373.9-11.555 2.725 0 5.363-.308 7.87.134 1.205.212 2.78 1.66 3.122 2.855 1.422 4.974 2.44 10.065 3.853 16.186 1.227-5.037 2.722-8.975 3.04-13.005.443-5.627 3.368-6.915 8.218-6.183.956.144 1.93.167 3.816.322l2.603 32.904h-7.951l-1.3-17.792-.847-.151c-.687 2.932-1.431 5.852-2.045 8.799-.674 3.233-2.444 5.2-5.87 5.115-3.25-.08-4.536-2.174-5.114-5.144-.764-3.93-1.803-7.804-3.722-11.667v20.915h-8.094c.505-7.062 1.013-14.16 1.521-21.733"/><path fill="#F6F6F6" d="M317.083 211.21c-1.2 3.609-2.391 6.805-3.935 10.948.739 1.674 2.224 4.607 3.308 7.682.525 1.49.298 3.245.412 4.88-2.414-.383-5.417-.027-7.079-1.353-1.698-1.355-1.853-4.496-3.115-6.596-.913-1.518-2.532-2.612-3.836-3.895l-1.162.816v11.21H293.4v-32.648c14.286-1.582 21.65-.75 23.684 8.957m-8.58-.12-6.884-4.149v9.47c4.181.85 7.165.336 6.884-5.321"/><path fill="#F5F5F5" d="M269.23 204.208c3.229-3.832 9.59-3.451 10.886.392 3.127 9.283 6.098 18.62 9.091 27.947.186.58.025 1.27.025 1.87-6.232 1.803-7.135 1.253-9.537-4.119-.514-1.15-2.637-2.287-3.954-2.216-2.427.13-6.152-1.946-6.935 2.406-.936 5.2-4.139 5.551-9.307 4.248 3.23-10.078 6.446-20.112 9.73-30.528m6.46 11.559-1.182-3.32-.958.042-2.053 9.154h5.976c-.551-1.95-.993-3.51-1.783-5.876"/><path fill="#F4F4F4" d="M423.946 216.178c.062 2.089.062 3.714.062 5.769h-10.112v6.61h13.829c-.16 4.474-1.66 6.89-6.143 6.753-3.818-.118-7.687.32-11.443-.176-1.73-.229-4.599-2.048-4.644-3.234-.376-9.893-.213-19.806-.213-29.962h20.912c1.5 6.76 1.198 7.152-5.441 7.152h-6.803l-.352 5.544c3.53.37 6.908.725 10.348 1.544m-211.948-14.26c2.35.88 4.324 1.629 6.292 2.376-.738 4.528-2.11 7.344-7.197 4.678-1.35-.707-3.23-.692-4.822-.54-.91.086-2.51 1.254-2.432 1.695.184 1.047.97 2.31 1.888 2.848 3.055 1.792 6.4 3.102 9.4 4.971 3.9 2.43 5.096 6.628 3.146 10.282-1.555 2.914-4.817 5.762-7.928 6.773-3.32 1.08-7.462.476-11.05-.296-6.25-1.344-6.597-2.892-2.662-8.356 2.883.86 5.768 2.072 8.76 2.462 1.404.182 3.014-1.219 4.53-1.902-.844-1.17-1.453-2.706-2.583-3.432-2.177-1.4-4.67-2.3-6.994-3.482-4.294-2.183-6.475-5.426-5.27-10.448 1.024-4.262 4.825-7.526 9.572-7.816 2.314-.142 4.648.028 7.35.187"/><path fill="#F5F5F5" d="M379.248 228.62a809 809 0 0 0-1.259 6.662c-2.277 0-4.403-.061-6.524.015-3.068.11-4.93-1.045-5.77-4.22-2.5-9.47-5.213-18.885-7.844-28.326 7.856-2.005 8.475-1.499 10.221 6.134 1.273 5.564 2.96 11.035 4.833 17.902l6.122-25.16 8.145.551a9986 9986 0 0 0-7.924 26.442"/><path fill="#FDFDFD" d="M343.2 203.914c.457 7.56-5.662 3.77-8.813 6.064v24.982h-7.357v-25.656l-8.513-.432.367-7.06c7.61 0 15.172-.032 22.73.071.53.008 1.046 1.022 1.586 2.031"/><path fill="#E5E5E5" d="M175.87 193.145v-8.35c4.235-1.445 3.92 1.197 3.918 3.58-.006 13.826 0 27.651 0 41.477 0 5.83.135 11.665-.097 17.486-.072 1.8-1.157 3.558-1.778 5.335-.681-1.695-1.94-3.384-1.954-5.084-.144-17.989-.09-35.979-.09-54.444"/><path fill="#E9E9E9" d="M354.62 231.562c-.785 7.13-5.412 2.398-8.33 3.741v-33.24h8.33zm44.142-6.609c-.003 3.616-.003 6.74-.003 10.093h-8.333v-32.621c7.648-1.968 8.311-1.487 8.323 6.074.008 5.321.011 10.642.013 16.454"/><path fill="#1E1E1E" d="M90.04 195.159c1.663-.702 3.599-.61 4.823-1.5 3.542-2.575 6.798-5.544 10.472-7.973-1.731 6.442-7.602 10.505-14.995 11.013-.373-.268-.362-.731-.3-1.54"/><path fill="#454545" d="M143.962 196.733c.54 3.959 2.002 7.685-1.203 11.85-.24-5.347-.433-9.685-.619-13.85a13.5 13.5 0 0 1 1.822 2"/><path fill="#1E1E1E" d="m135.75 189.255-17.638-1.124c6.06-1.987 11.953-3.579 18.112.19-.15.641-.311.788-.473.934m-15.887 41.73c.882-2.267 1.777-4.136 2.672-6.004l1.84.775-2.86 8.428-1.438-.43c-.067-.79-.134-1.58-.214-2.769"/><path fill="#BFBFBF" d="M134.942 246.549c.102-1.198.204-1.976.306-2.754l.951-.006v12.285l-.943.16c-.089-1.435-.21-2.869-.256-4.305-.054-1.653-.042-3.307-.058-5.38"/><path d="M151.964 208.011c-1.078-.69-2.618-1.543-2.737-2.56-.345-2.961-.122-5.989-.122-10.254.86 2.115 1.665 3.495 1.964 4.977.442 2.199.525 4.47 1.098 6.908.22.363.103.528-.203.93"/><path fill="#1E1E1E" d="M136.489 188.608c1.54.911 2.827 2.03 4.113 3.147l-1.004 1.182c-1.188-1.018-2.376-2.036-3.706-3.368.02-.46.182-.607.597-.96m172.19 22.829c.105 5.31-2.879 5.824-7.06 4.974v-9.47c2.938 1.77 4.911 2.96 7.06 4.496m-32.816 4.731c.616 1.963 1.058 3.525 1.61 5.474h-5.977l2.053-9.154.958-.041c.394 1.106.788 2.212 1.356 3.72"/></svg>