<svg version="1.1" id="Layer_1" xmlns="http://www.w3.org/2000/svg" xmlns:xlink="http://www.w3.org/1999/xlink" x="0px" y="0px"
	 width="100%" viewBox="0 0 574 435" enable-background="new 0 0 574 435" xml:space="preserve">
<path fill="#000000" opacity="1.000000" stroke="none" 
	d="
M536.000000,436.000000 
	C357.333374,436.000000 179.166748,436.000000 1.000096,436.000000 
	C1.000064,291.000092 1.000064,146.000153 1.000032,1.000173 
	C192.333206,1.000116 383.666412,1.000116 574.999756,1.000058 
	C574.999817,145.999847 574.999817,290.999695 574.999878,435.999756 
	C562.166687,436.000000 549.333313,436.000000 536.000000,436.000000 
M153.185333,207.478073 
	C157.590546,207.823456 156.198654,204.072937 156.317291,202.268326 
	C157.711014,181.069046 140.403015,170.285645 122.976151,170.486496 
	C107.196716,170.668381 94.819443,178.283524 89.988792,195.504593 
	C89.978012,195.968002 89.967224,196.431396 89.938347,197.821808 
	C90.482513,205.085052 92.957611,212.528824 87.386177,219.193100 
	C86.901825,219.772461 88.736488,222.305115 89.514526,223.920563 
	C90.110237,225.157440 90.900269,226.328156 91.304039,227.621872 
	C91.666214,228.782349 91.401451,230.145798 91.796036,231.287399 
	C92.777451,234.126816 94.405685,236.804184 94.992096,239.704727 
	C95.952698,244.456100 97.980965,246.069229 102.556236,244.772888 
	C109.912674,242.688553 109.910980,242.689346 113.028778,249.465759 
	C113.305542,250.067322 113.641129,250.641800 113.918983,251.242905 
	C115.240990,254.102936 114.985085,256.551117 112.531601,258.858185 
	C109.977783,261.259613 107.728249,263.984680 105.345650,266.568207 
	C105.508522,266.966675 105.671402,267.365173 105.834274,267.763641 
	C108.558060,266.514099 111.252228,265.193542 114.016380,264.040771 
	C115.762985,263.312347 117.607033,262.349945 119.419449,262.323639 
	C130.397903,262.164215 141.379822,262.244232 153.341339,262.244232 
	C152.484116,259.474945 152.136826,257.061798 151.026749,255.074814 
	C149.430084,252.216843 147.330811,249.629562 145.353882,246.995941 
	C138.607925,238.009247 138.674179,232.367874 145.505829,223.505508 
	C148.780701,219.257187 151.859085,214.857391 155.153549,210.352386 
	C153.612259,209.392212 152.694061,208.820190 152.152847,207.774155 
	C152.269699,207.609543 152.386566,207.444916 153.185333,207.478073 
M468.952271,214.792694 
	C469.539703,212.214661 470.187775,209.648499 470.696075,207.054947 
	C471.130035,204.840698 472.194000,202.162094 468.469849,201.777817 
	C465.595490,201.481201 462.605469,201.148407 462.844391,205.721512 
	C462.953705,207.813751 462.449371,209.969955 462.009064,212.051819 
	C461.288147,215.460297 460.392151,218.831757 459.570007,222.218842 
	C459.216705,222.107742 458.863403,221.996658 458.510071,221.885559 
	C457.580505,215.437866 456.650940,208.990173 455.734802,202.635620 
	C451.978210,202.635620 448.585846,202.635620 445.361359,202.635620 
	C444.257690,209.618240 443.209686,216.248428 442.161713,222.878601 
	C441.743683,222.853455 441.325653,222.828323 440.907623,222.803177 
	C440.276245,218.139359 439.487000,213.490234 439.050537,208.808243 
	C438.399200,201.820892 435.595825,200.130386 429.562805,203.122208 
	C431.202881,211.876785 432.973938,220.545059 434.395996,229.270203 
	C435.055176,233.314590 436.541077,235.747696 441.064972,235.315460 
	C442.981018,235.132385 444.929169,235.284912 446.848633,235.284912 
	C447.911835,228.904999 448.887512,223.050446 449.863190,217.195877 
	C450.283173,217.229828 450.703125,217.263763 451.123108,217.297699 
	C451.774658,221.845596 452.497406,226.384705 453.058960,230.943695 
	C453.701843,236.163147 457.602539,235.103607 460.987549,235.315201 
	C464.090973,235.509155 465.765259,234.917770 466.088531,231.156921 
	C466.536316,225.947327 467.942810,220.820175 468.952271,214.792694 
M223.783005,213.734467 
	C223.275253,220.833221 222.767487,227.931976 222.262344,234.994202 
	C225.076706,234.994202 227.334991,234.994202 230.355606,234.994202 
	C230.355606,227.824814 230.355606,220.951752 230.355606,214.078705 
	C232.275085,217.941605 233.314346,221.816818 234.078171,225.745575 
	C234.655746,228.716202 235.941055,230.810349 239.191223,230.890137 
	C242.618088,230.974243 244.388306,229.007965 245.061905,225.775024 
	C245.675964,222.827805 246.420151,219.907669 247.106964,216.975601 
	C247.389465,217.025940 247.671967,217.076294 247.954468,217.126633 
	C248.391190,223.105988 248.827927,229.085358 249.254013,234.918976 
	C252.063171,234.918976 254.453857,234.918976 257.204681,234.918976 
	C256.318329,223.711868 255.463226,212.899460 254.602402,202.014816 
	C252.716492,201.860245 251.742279,201.836716 250.786255,201.692566 
	C245.935928,200.961258 243.010773,202.248810 242.567230,207.876404 
	C242.249573,211.906494 240.755112,215.843826 239.527832,220.880890 
	C238.114288,214.759781 237.097214,209.669296 235.674820,204.694733 
	C235.333435,203.500824 233.757858,202.051620 232.552811,201.839508 
	C230.046143,201.398254 227.407593,201.706146 224.682907,201.706146 
	C224.343674,205.887573 224.063766,209.337769 223.783005,213.734467 
M317.091797,210.799744 
	C315.048676,201.504181 307.685120,200.671707 293.399414,202.254074 
	C293.399414,213.139313 293.399414,224.027557 293.399414,234.902328 
	C296.234589,234.902328 298.778473,234.902328 301.676300,234.902328 
	C301.676300,230.903900 301.676300,227.298019 301.676300,223.692154 
	C302.063629,223.420135 302.450958,223.148117 302.838287,222.876099 
	C304.142120,224.159119 305.760803,225.252838 306.673523,226.770996 
	C307.935944,228.870850 308.090759,232.012146 309.789215,233.367462 
	C311.450531,234.693161 314.453583,234.337494 316.867676,234.719849 
	C316.754242,233.084885 316.981445,231.329834 316.456207,229.840042 
	C315.372192,226.765350 313.886932,223.832138 313.148132,222.158096 
	C314.691589,218.015259 315.882568,214.818527 317.091797,210.799744 
M269.160583,204.589951 
	C265.944855,214.624084 262.729095,224.658203 259.499268,234.736267 
	C264.667358,236.039215 267.869781,235.688934 268.805542,230.487915 
	C269.588501,226.136368 273.313629,228.212692 275.741028,228.082001 
	C277.057617,228.011124 279.181061,229.148895 279.695068,230.298416 
	C282.097046,235.670013 282.999603,236.219589 289.231537,234.416214 
	C289.231537,233.816650 289.393219,233.126083 289.207397,232.547043 
	C286.213654,223.219223 283.243011,213.882919 280.115540,204.599625 
	C278.820831,200.756531 272.458862,200.376022 269.160583,204.589951 
M423.883026,215.714142 
	C420.505890,215.359314 417.128723,215.004501 413.598328,214.633575 
	C413.714661,212.797592 413.824768,211.060364 413.949615,209.090469 
	C416.473175,209.090469 418.612854,209.090546 420.752533,209.090454 
	C427.392242,209.090195 427.693359,208.697647 426.194214,201.938416 
	C419.461304,201.938416 412.720612,201.938416 405.281708,201.938416 
	C405.281708,212.093903 405.119446,222.007111 405.494995,231.899902 
	C405.540009,233.085587 408.408295,234.905090 410.139252,235.133560 
	C413.894989,235.629318 417.764435,235.191940 421.582031,235.309525 
	C426.065491,235.447632 427.565826,233.030823 427.724884,228.556335 
	C422.981323,228.556335 418.569946,228.556335 413.896118,228.556335 
	C413.896118,226.221481 413.896118,224.309158 413.896118,221.946899 
	C417.161072,221.946899 420.410156,221.946899 424.008301,221.946899 
	C424.008301,219.892166 424.008301,218.266708 423.883026,215.714142 
M211.620239,201.787674 
	C209.295654,201.758835 206.962463,201.589142 204.648285,201.730591 
	C199.900955,202.020798 196.100052,205.285446 195.076645,209.547150 
	C193.870712,214.568832 196.052032,217.811646 200.346405,219.994781 
	C202.670563,221.176315 205.163055,222.076996 207.340363,223.476547 
	C208.470078,224.202713 209.079147,225.738800 209.923416,226.909012 
	C208.406921,227.592346 206.796967,228.993484 205.393234,228.810699 
	C202.400925,228.421082 199.515594,227.209702 196.633377,226.349075 
	C192.698456,231.812576 193.045761,233.361069 199.294113,234.705368 
	C202.882965,235.477493 207.024521,236.081207 210.345154,235.001389 
	C213.456116,233.989700 216.718018,231.142380 218.273193,228.227676 
	C220.222534,224.574219 219.026230,220.376099 215.126129,217.946350 
	C212.126068,216.077301 208.781708,214.767151 205.727173,212.975403 
	C204.809647,212.437195 204.022583,211.174057 203.838562,210.126556 
	C203.761139,209.685883 205.361893,208.518402 206.271179,208.431915 
	C207.863266,208.280487 209.742920,208.264786 211.093201,208.972443 
	C216.180435,211.638458 217.552109,208.821899 218.289795,204.293625 
	C216.322083,203.546570 214.348770,202.797394 211.620239,201.787674 
M379.341156,228.221771 
	C381.875977,219.792007 384.410797,211.362228 387.172394,202.178284 
	C383.933441,201.959396 381.560394,201.799026 379.027405,201.627853 
	C376.998108,209.966629 375.074677,217.870422 372.904663,226.787460 
	C371.032623,219.919510 369.345459,214.449448 368.072479,208.884659 
	C366.326477,201.252228 365.707336,200.746490 357.851105,202.750946 
	C360.482086,212.191574 363.194244,221.606781 365.695923,231.077560 
	C366.534546,234.252289 368.397278,235.406387 371.465302,235.296768 
	C373.586212,235.221024 375.712067,235.282227 377.989410,235.282227 
	C378.435089,232.885162 378.794556,230.951660 379.341156,228.221771 
M343.182800,203.451065 
	C342.660370,202.905029 342.144348,201.890671 341.614563,201.883438 
	C334.055511,201.780136 326.494568,201.812943 318.884125,201.812943 
	C318.746399,204.464432 318.637726,206.556778 318.517487,208.871704 
	C321.245392,209.010284 323.971649,209.148788 327.030365,209.304184 
	C327.030365,218.095947 327.030365,226.497330 327.030365,234.960419 
	C329.605347,234.960419 331.807587,234.960419 334.386688,234.960419 
	C334.386688,226.260818 334.386688,217.855911 334.386688,209.977829 
	C337.537567,207.683975 343.656647,211.473862 343.182800,203.451065 
M175.869522,193.620667 
	C175.869522,211.610245 175.814850,229.600266 175.958572,247.588684 
	C175.972137,249.288559 177.231827,250.978455 177.912964,252.672989 
	C178.533936,250.895828 179.618561,249.137222 179.690521,247.338089 
	C179.923370,241.517288 179.787476,235.681610 179.787796,229.851654 
	C179.788528,216.026367 179.781967,202.201065 179.788330,188.375778 
	C179.789429,185.992477 180.105026,183.349701 175.869553,184.795746 
	C175.869553,187.390305 175.869553,190.029861 175.869522,193.620667 
M354.620087,231.114777 
	C354.620087,221.405090 354.620087,211.695404 354.620087,202.062103 
	C351.362335,202.062103 348.833740,202.062103 346.290314,202.062103 
	C346.290314,213.247116 346.290314,224.004745 346.290314,235.303223 
	C349.207581,233.959824 353.834991,238.691116 354.620087,231.114777 
M398.766052,224.462143 
	C398.760406,219.141083 398.756561,213.820007 398.748657,208.498947 
	C398.737396,200.938370 398.074432,200.456757 390.426086,202.424576 
	C390.426086,213.205246 390.426086,223.980896 390.426086,235.045807 
	C393.173218,235.045807 395.745117,235.045807 398.758545,235.045807 
	C398.758545,231.692352 398.758545,228.568542 398.766052,224.462143 
z"/>
<path fill="#F7F7F7" opacity="1.000000" stroke="none" 
	d="
M90.091698,194.813446 
	C94.819443,178.283524 107.196716,170.668381 122.976151,170.486496 
	C140.403015,170.285645 157.711014,181.069046 156.317291,202.268326 
	C156.198654,204.072937 157.590546,207.823456 152.507660,207.180603 
	C151.594086,204.643265 151.511337,202.372543 151.068756,200.174271 
	C150.770386,198.692245 149.964142,197.312439 149.104858,195.197006 
	C149.104858,199.462296 148.881805,202.489609 149.227478,205.450500 
	C149.346329,206.468369 150.885529,207.320389 151.775864,208.248169 
	C152.694061,208.820190 153.612259,209.392212 155.153549,210.352386 
	C151.859085,214.857391 148.780701,219.257187 145.505829,223.505508 
	C138.674179,232.367874 138.607925,238.009247 145.353882,246.995941 
	C147.330811,249.629562 149.430084,252.216843 151.026749,255.074814 
	C152.136826,257.061798 152.484116,259.474945 153.341339,262.244232 
	C141.379822,262.244232 130.397903,262.164215 119.419449,262.323639 
	C117.607033,262.349945 115.762985,263.312347 114.016380,264.040771 
	C111.252228,265.193542 108.558060,266.514099 105.834274,267.763641 
	C105.671402,267.365173 105.508522,266.966675 105.345650,266.568207 
	C107.728249,263.984680 109.977783,261.259613 112.531601,258.858185 
	C114.985085,256.551117 115.240990,254.102936 113.918983,251.242905 
	C113.641129,250.641800 113.305542,250.067322 113.028778,249.465759 
	C109.910980,242.689346 109.912674,242.688553 102.556236,244.772888 
	C97.980965,246.069229 95.952698,244.456100 94.992096,239.704727 
	C94.405685,236.804184 92.777451,234.126816 91.796036,231.287399 
	C91.401451,230.145798 91.666214,228.782349 91.304039,227.621872 
	C90.900269,226.328156 90.110237,225.157440 89.514526,223.920563 
	C88.736488,222.305115 86.901825,219.772461 87.386177,219.193100 
	C92.957611,212.528824 90.482513,205.085052 90.330978,197.162445 
	C97.733215,196.191055 103.603615,192.128342 105.335045,185.685852 
	C101.661034,188.115326 98.405113,191.084381 94.862625,193.659164 
	C93.639046,194.548492 91.702545,194.456940 90.091698,194.813446 
M136.034134,189.882278 
	C137.222137,190.900665 138.410126,191.919052 139.598129,192.937439 
	C139.932877,192.543457 140.267639,192.149475 140.602402,191.755493 
	C139.315567,190.637238 138.028717,189.518997 136.211929,187.827332 
	C130.064728,184.552139 124.171997,186.144455 118.112183,188.130844 
	C124.172493,188.517120 129.961594,188.886108 136.034134,189.882278 
M143.914291,196.379150 
	C143.243408,195.756760 142.572525,195.134369 142.140366,194.733429 
	C142.326279,198.898300 142.519913,203.236084 142.758621,208.583313 
	C145.964462,204.418045 144.501709,200.691772 143.914291,196.379150 
M119.876595,231.384293 
	C119.943726,232.174088 120.010857,232.963867 120.077988,233.753662 
	C120.557411,233.896957 121.036842,234.040237 121.516273,234.183533 
	C122.469612,231.374496 123.422951,228.565445 124.376289,225.756409 
	C123.762718,225.497849 123.149147,225.239304 122.535583,224.980743 
	C121.640907,226.849243 120.746231,228.717743 119.876595,231.384293 
M134.942139,246.968536 
	C134.958405,248.622055 134.946014,250.276489 134.999619,251.928802 
	C135.046188,253.365067 135.167358,254.798904 135.255554,256.233826 
	C135.570038,256.180573 135.884521,256.127289 136.199005,256.074036 
	C136.199005,251.979065 136.199005,247.884094 136.199005,243.789108 
	C135.882126,243.790939 135.565231,243.792755 135.248352,243.794586 
	C135.146317,244.572800 135.044296,245.350998 134.942139,246.968536 
z"/>
<path fill="#F5F5F5" opacity="1.000000" stroke="none" 
	d="
M468.945526,215.225204 
	C467.942810,220.820175 466.536316,225.947327 466.088531,231.156921 
	C465.765259,234.917770 464.090973,235.509155 460.987549,235.315201 
	C457.602539,235.103607 453.701843,236.163147 453.058960,230.943695 
	C452.497406,226.384705 451.774658,221.845596 451.123108,217.297699 
	C450.703125,217.263763 450.283173,217.229828 449.863190,217.195877 
	C448.887512,223.050446 447.911835,228.904999 446.848633,235.284912 
	C444.929169,235.284912 442.981018,235.132385 441.064972,235.315460 
	C436.541077,235.747696 435.055176,233.314590 434.395996,229.270203 
	C432.973938,220.545059 431.202881,211.876785 429.562805,203.122208 
	C435.595825,200.130386 438.399200,201.820892 439.050537,208.808243 
	C439.487000,213.490234 440.276245,218.139359 440.907623,222.803177 
	C441.325653,222.828323 441.743683,222.853455 442.161713,222.878601 
	C443.209686,216.248428 444.257690,209.618240 445.361359,202.635620 
	C448.585846,202.635620 451.978210,202.635620 455.734802,202.635620 
	C456.650940,208.990173 457.580505,215.437866 458.510071,221.885559 
	C458.863403,221.996658 459.216705,222.107742 459.570007,222.218842 
	C460.392151,218.831757 461.288147,215.460297 462.009064,212.051819 
	C462.449371,209.969955 462.953705,207.813751 462.844391,205.721512 
	C462.605469,201.148407 465.595490,201.481201 468.469849,201.777817 
	C472.194000,202.162094 471.130035,204.840698 470.696075,207.054947 
	C470.187775,209.648499 469.539703,212.214661 468.945526,215.225204 
z"/>
<path fill="#F5F5F5" opacity="1.000000" stroke="none" 
	d="
M223.783432,213.261215 
	C224.063766,209.337769 224.343674,205.887573 224.682907,201.706146 
	C227.407593,201.706146 230.046143,201.398254 232.552811,201.839508 
	C233.757858,202.051620 235.333435,203.500824 235.674820,204.694733 
	C237.097214,209.669296 238.114288,214.759781 239.527832,220.880890 
	C240.755112,215.843826 242.249573,211.906494 242.567230,207.876404 
	C243.010773,202.248810 245.935928,200.961258 250.786255,201.692566 
	C251.742279,201.836716 252.716492,201.860245 254.602402,202.014816 
	C255.463226,212.899460 256.318329,223.711868 257.204681,234.918976 
	C254.453857,234.918976 252.063171,234.918976 249.254013,234.918976 
	C248.827927,229.085358 248.391190,223.105988 247.954468,217.126633 
	C247.671967,217.076294 247.389465,217.025940 247.106964,216.975601 
	C246.420151,219.907669 245.675964,222.827805 245.061905,225.775024 
	C244.388306,229.007965 242.618088,230.974243 239.191223,230.890137 
	C235.941055,230.810349 234.655746,228.716202 234.078171,225.745575 
	C233.314346,221.816818 232.275085,217.941605 230.355606,214.078705 
	C230.355606,220.951752 230.355606,227.824814 230.355606,234.994202 
	C227.334991,234.994202 225.076706,234.994202 222.262344,234.994202 
	C222.767487,227.931976 223.275253,220.833221 223.783432,213.261215 
z"/>
<path fill="#F6F6F6" opacity="1.000000" stroke="none" 
	d="
M317.082703,211.210770 
	C315.882568,214.818527 314.691589,218.015259 313.148132,222.158096 
	C313.886932,223.832138 315.372192,226.765350 316.456207,229.840042 
	C316.981445,231.329834 316.754242,233.084885 316.867676,234.719849 
	C314.453583,234.337494 311.450531,234.693161 309.789215,233.367462 
	C308.090759,232.012146 307.935944,228.870850 306.673523,226.770996 
	C305.760803,225.252838 304.142120,224.159119 302.838287,222.876099 
	C302.450958,223.148117 302.063629,223.420135 301.676300,223.692154 
	C301.676300,227.298019 301.676300,230.903900 301.676300,234.902328 
	C298.778473,234.902328 296.234589,234.902328 293.399414,234.902328 
	C293.399414,224.027557 293.399414,213.139313 293.399414,202.254074 
	C307.685120,200.671707 315.048676,201.504181 317.082703,211.210770 
M308.503204,211.090698 
	C306.530304,209.901749 304.557404,208.712799 301.619202,206.942139 
	C301.619202,211.232758 301.619202,213.791626 301.619202,216.411697 
	C305.800293,217.262299 308.784241,216.747604 308.503204,211.090698 
z"/>
<path fill="#F5F5F5" opacity="1.000000" stroke="none" 
	d="
M269.229614,204.208496 
	C272.458862,200.376022 278.820831,200.756531 280.115540,204.599625 
	C283.243011,213.882919 286.213654,223.219223 289.207397,232.547043 
	C289.393219,233.126083 289.231537,233.816650 289.231537,234.416214 
	C282.999603,236.219589 282.097046,235.670013 279.695068,230.298416 
	C279.181061,229.148895 277.057617,228.011124 275.741028,228.082001 
	C273.313629,228.212692 269.588501,226.136368 268.805542,230.487915 
	C267.869781,235.688934 264.667358,236.039215 259.499268,234.736267 
	C262.729095,224.658203 265.944855,214.624084 269.229614,204.208496 
M275.688568,215.766693 
	C275.294861,214.660309 274.901123,213.553909 274.507416,212.447525 
	C274.187897,212.461288 273.868347,212.475067 273.548828,212.488831 
	C272.875214,215.492355 272.201630,218.495880 271.495850,221.642792 
	C273.796173,221.642792 275.485565,221.642792 277.472198,221.642792 
	C276.920532,219.693893 276.478546,218.132462 275.688568,215.766693 
z"/>
<path fill="#F4F4F4" opacity="1.000000" stroke="none" 
	d="
M423.945679,216.177689 
	C424.008301,218.266708 424.008301,219.892166 424.008301,221.946899 
	C420.410156,221.946899 417.161072,221.946899 413.896118,221.946899 
	C413.896118,224.309158 413.896118,226.221481 413.896118,228.556335 
	C418.569946,228.556335 422.981323,228.556335 427.724884,228.556335 
	C427.565826,233.030823 426.065491,235.447632 421.582031,235.309525 
	C417.764435,235.191940 413.894989,235.629318 410.139252,235.133560 
	C408.408295,234.905090 405.540009,233.085587 405.494995,231.899902 
	C405.119446,222.007111 405.281708,212.093903 405.281708,201.938416 
	C412.720612,201.938416 419.461304,201.938416 426.194214,201.938416 
	C427.693359,208.697647 427.392242,209.090195 420.752533,209.090454 
	C418.612854,209.090546 416.473175,209.090469 413.949615,209.090469 
	C413.824768,211.060364 413.714661,212.797592 413.598328,214.633575 
	C417.128723,215.004501 420.505890,215.359314 423.945679,216.177689 
z"/>
<path fill="#F4F4F4" opacity="1.000000" stroke="none" 
	d="
M211.997849,201.917938 
	C214.348770,202.797394 216.322083,203.546570 218.289795,204.293625 
	C217.552109,208.821899 216.180435,211.638458 211.093201,208.972443 
	C209.742920,208.264786 207.863266,208.280487 206.271179,208.431915 
	C205.361893,208.518402 203.761139,209.685883 203.838562,210.126556 
	C204.022583,211.174057 204.809647,212.437195 205.727173,212.975403 
	C208.781708,214.767151 212.126068,216.077301 215.126129,217.946350 
	C219.026230,220.376099 220.222534,224.574219 218.273193,228.227676 
	C216.718018,231.142380 213.456116,233.989700 210.345154,235.001389 
	C207.024521,236.081207 202.882965,235.477493 199.294113,234.705368 
	C193.045761,233.361069 192.698456,231.812576 196.633377,226.349075 
	C199.515594,227.209702 202.400925,228.421082 205.393234,228.810699 
	C206.796967,228.993484 208.406921,227.592346 209.923416,226.909012 
	C209.079147,225.738800 208.470078,224.202713 207.340363,223.476547 
	C205.163055,222.076996 202.670563,221.176315 200.346405,219.994781 
	C196.052032,217.811646 193.870712,214.568832 195.076645,209.547150 
	C196.100052,205.285446 199.900955,202.020798 204.648285,201.730591 
	C206.962463,201.589142 209.295654,201.758835 211.997849,201.917938 
z"/>
<path fill="#F5F5F5" opacity="1.000000" stroke="none" 
	d="
M379.247620,228.619965 
	C378.794556,230.951660 378.435089,232.885162 377.989410,235.282227 
	C375.712067,235.282227 373.586212,235.221024 371.465302,235.296768 
	C368.397278,235.406387 366.534546,234.252289 365.695923,231.077560 
	C363.194244,221.606781 360.482086,212.191574 357.851105,202.750946 
	C365.707336,200.746490 366.326477,201.252228 368.072479,208.884659 
	C369.345459,214.449448 371.032623,219.919510 372.904663,226.787460 
	C375.074677,217.870422 376.998108,209.966629 379.027405,201.627853 
	C381.560394,201.799026 383.933441,201.959396 387.172394,202.178284 
	C384.410797,211.362228 381.875977,219.792007 379.247620,228.619965 
z"/>
<path fill="#FDFDFD" opacity="1.000000" stroke="none" 
	d="
M343.199951,203.914093 
	C343.656647,211.473862 337.537567,207.683975 334.386688,209.977829 
	C334.386688,217.855911 334.386688,226.260818 334.386688,234.960419 
	C331.807587,234.960419 329.605347,234.960419 327.030365,234.960419 
	C327.030365,226.497330 327.030365,218.095947 327.030365,209.304184 
	C323.971649,209.148788 321.245392,209.010284 318.517487,208.871704 
	C318.637726,206.556778 318.746399,204.464432 318.884125,201.812943 
	C326.494568,201.812943 334.055511,201.780136 341.614563,201.883438 
	C342.144348,201.890671 342.660370,202.905029 343.199951,203.914093 
z"/>
<path fill="#E5E5E5" opacity="1.000000" stroke="none" 
	d="
M175.869537,193.145035 
	C175.869553,190.029861 175.869553,187.390305 175.869553,184.795746 
	C180.105026,183.349701 179.789429,185.992477 179.788330,188.375778 
	C179.781967,202.201065 179.788528,216.026367 179.787796,229.851654 
	C179.787476,235.681610 179.923370,241.517288 179.690521,247.338089 
	C179.618561,249.137222 178.533936,250.895828 177.912964,252.672989 
	C177.231827,250.978455 175.972137,249.288559 175.958572,247.588684 
	C175.814850,229.600266 175.869522,211.610245 175.869537,193.145035 
z"/>
<path fill="#E9E9E9" opacity="1.000000" stroke="none" 
	d="
M354.620117,231.561661 
	C353.834991,238.691116 349.207581,233.959824 346.290314,235.303223 
	C346.290314,224.004745 346.290314,213.247116 346.290314,202.062103 
	C348.833740,202.062103 351.362335,202.062103 354.620087,202.062103 
	C354.620087,211.695404 354.620087,221.405090 354.620117,231.561661 
z"/>
<path fill="#E9E9E9" opacity="1.000000" stroke="none" 
	d="
M398.762299,224.953430 
	C398.758545,228.568542 398.758545,231.692352 398.758545,235.045807 
	C395.745117,235.045807 393.173218,235.045807 390.426086,235.045807 
	C390.426086,223.980896 390.426086,213.205246 390.426086,202.424576 
	C398.074432,200.456757 398.737396,200.938370 398.748657,208.498947 
	C398.756561,213.820007 398.760406,219.141083 398.762299,224.953430 
z"/>
<path fill="#1E1E1E" opacity="1.000000" stroke="none" 
	d="
M90.040245,195.159027 
	C91.702545,194.456940 93.639046,194.548492 94.862625,193.659164 
	C98.405113,191.084381 101.661034,188.115326 105.335045,185.685852 
	C103.603615,192.128342 97.733215,196.191055 90.340027,196.698944 
	C89.967224,196.431396 89.978012,195.968002 90.040245,195.159027 
z"/>
<path fill="#454545" opacity="1.000000" stroke="none" 
	d="
M143.962372,196.732864 
	C144.501709,200.691772 145.964462,204.418045 142.758621,208.583313 
	C142.519913,203.236084 142.326279,198.898300 142.140366,194.733429 
	C142.572525,195.134369 143.243408,195.756760 143.962372,196.732864 
z"/>
<path fill="#1E1E1E" opacity="1.000000" stroke="none" 
	d="
M135.750702,189.255096 
	C129.961594,188.886108 124.172493,188.517120 118.112183,188.130844 
	C124.171997,186.144455 130.064728,184.552139 136.224014,188.321716 
	C136.074310,188.962418 135.912506,189.108749 135.750702,189.255096 
z"/>
<path fill="#1E1E1E" opacity="1.000000" stroke="none" 
	d="
M119.864075,230.985260 
	C120.746231,228.717743 121.640907,226.849243 122.535583,224.980743 
	C123.149147,225.239304 123.762718,225.497849 124.376289,225.756409 
	C123.422951,228.565445 122.469612,231.374496 121.516273,234.183533 
	C121.036842,234.040237 120.557411,233.896957 120.077988,233.753662 
	C120.010857,232.963867 119.943726,232.174088 119.864075,230.985260 
z"/>
<path fill="#BFBFBF" opacity="1.000000" stroke="none" 
	d="
M134.942200,246.548874 
	C135.044296,245.350998 135.146317,244.572800 135.248352,243.794586 
	C135.565231,243.792755 135.882126,243.790939 136.199005,243.789108 
	C136.199005,247.884094 136.199005,251.979065 136.199005,256.074036 
	C135.884521,256.127289 135.570038,256.180573 135.255554,256.233826 
	C135.167358,254.798904 135.046188,253.365067 134.999619,251.928802 
	C134.946014,250.276489 134.958405,248.622055 134.942200,246.548874 
z"/>
<path fill="#000000" opacity="1.000000" stroke="none" 
	d="
M151.964355,208.011169 
	C150.885529,207.320389 149.346329,206.468369 149.227478,205.450500 
	C148.881805,202.489609 149.104858,199.462296 149.104858,195.197006 
	C149.964142,197.312439 150.770386,198.692245 151.068756,200.174271 
	C151.511337,202.372543 151.594086,204.643265 152.166718,207.081711 
	C152.386566,207.444916 152.269699,207.609543 151.964355,208.011169 
z"/>
<path fill="#1E1E1E" opacity="1.000000" stroke="none" 
	d="
M136.488983,188.608414 
	C138.028717,189.518997 139.315567,190.637238 140.602402,191.755493 
	C140.267639,192.149475 139.932877,192.543457 139.598129,192.937439 
	C138.410126,191.919052 137.222137,190.900665 135.892426,189.568695 
	C135.912506,189.108749 136.074310,188.962418 136.488983,188.608414 
z"/>
<path fill="#1E1E1E" opacity="1.000000" stroke="none" 
	d="
M308.679016,211.437683 
	C308.784241,216.747604 305.800293,217.262299 301.619202,216.411697 
	C301.619202,213.791626 301.619202,211.232758 301.619202,206.942139 
	C304.557404,208.712799 306.530304,209.901749 308.679016,211.437683 
z"/>
<path fill="#1E1E1E" opacity="1.000000" stroke="none" 
	d="
M275.862549,216.168854 
	C276.478546,218.132462 276.920532,219.693893 277.472198,221.642792 
	C275.485565,221.642792 273.796173,221.642792 271.495850,221.642792 
	C272.201630,218.495880 272.875214,215.492355 273.548828,212.488831 
	C273.868347,212.475067 274.187897,212.461288 274.507416,212.447525 
	C274.901123,213.553909 275.294861,214.660309 275.862549,216.168854 
z"/>
</svg>